<svg id="Layer_1" data-name="Layer 1" xmlns="http://www.w3.org/2000/svg" viewBox="0 0 1497.86 327.54"><defs><style>.cls-1{fill:#fff200;}.cls-2{fill:#51ace5;}.cls-3{font-size:87px;font-family:FashionFetish, Fashion Fetish;}.cls-4,.cls-5,.cls-6{font-family:FashionFetishHeavy, Fashion Fetish Heavy;}.cls-4{letter-spacing:-0.07em;}.cls-5{letter-spacing:-0.55em;}</style></defs><title>logo-fixed</title><path class="cls-1" d="M270.67,58a18.34,18.34,0,1,1-18.34-18.56A18.45,18.45,0,0,1,270.67,58Z"/><path class="cls-1" d="M80.45,269.08a18.34,18.34,0,1,1-18.34-18.56A18.46,18.46,0,0,1,80.45,269.08Z"/><path class="cls-2" d="M240.23,145.35a85.88,85.88,0,0,0-11.64-28.44l11-11.12L214.22,80.15l-11,11.11a83.83,83.83,0,0,0-28.1-11.79V63.77H139.3v15.7a83.83,83.83,0,0,0-28.1,11.79l-11-11.11L74.88,105.79l11,11.12a86.11,86.11,0,0,0-11.65,28.44H58.65l0,36.27H74.21a85.83,85.83,0,0,0,11.65,28.45l-11,11.15,25.34,25.66,11-11.16a83.82,83.82,0,0,0,28.1,11.78v15.81h35.84V247.5a84,84,0,0,0,28.11-11.78l11,11.16,25.33-25.66-11-11.15a86,86,0,0,0,11.64-28.45h15.58V145.35Zm-83,60.32c-23,0-41.62-18.86-41.62-42.13s18.63-42.13,41.62-42.13,41.63,18.86,41.63,42.13S180.21,205.67,157.22,205.67Z"/><path d="M62.11,244.72a23.67,23.67,0,0,0-11.56,3A138.22,138.22,0,0,1,22,163.54c0-75.49,60.68-136.9,135.26-136.9a134.83,134.83,0,0,1,26.94,2.71,5.73,5.73,0,0,0,6.75-4.53A5.81,5.81,0,0,0,186.43,18a145.71,145.71,0,0,0-133,40.55,149.85,149.85,0,0,0-11.4,197,24.61,24.61,0,0,0,3,30.74,23.86,23.86,0,0,0,34,0,24.57,24.57,0,0,0,0-34.45A23.73,23.73,0,0,0,62.11,244.72ZM71,278.11a12.5,12.5,0,0,1-17.83,0,12.86,12.86,0,0,1,0-18.05,12.5,12.5,0,0,1,17.83,0,12.88,12.88,0,0,1,0,18.05Z"/><path d="M272.36,71.5a24.61,24.61,0,0,0-3-30.73,23.86,23.86,0,0,0-34,0,24.57,24.57,0,0,0,0,34.45,23.85,23.85,0,0,0,28.58,4.15,138.2,138.2,0,0,1,28.59,84.17c0,75.49-60.68,136.9-135.26,136.9a134.51,134.51,0,0,1-26.68-2.67,5.74,5.74,0,0,0-6.74,4.55,5.8,5.8,0,0,0,4.49,6.83A145.62,145.62,0,0,0,261,268.54a149.84,149.84,0,0,0,11.39-197ZM243.42,67a12.86,12.86,0,0,1,0-18,12.5,12.5,0,0,1,17.83,0,12.9,12.9,0,0,1,0,18,12.5,12.5,0,0,1-17.83,0Z"/><path d="M133.57,263.31a5.76,5.76,0,0,0,5.73,5.8h35.84a5.76,5.76,0,0,0,5.73-5.8V252.07a89.28,89.28,0,0,0,21.51-9l7.84,7.94a5.69,5.69,0,0,0,8.11,0l25.33-25.65a5.86,5.86,0,0,0,0-8.21l-7.83-7.93a91.41,91.41,0,0,0,8.91-21.77h11.07a5.77,5.77,0,0,0,5.73-5.8V145.35a5.77,5.77,0,0,0-5.73-5.8H244.74a91.41,91.41,0,0,0-8.91-21.77l7.79-7.89a5.84,5.84,0,0,0,0-8.2L218.27,76.05a5.7,5.7,0,0,0-8.11,0l-7.78,7.88a88.85,88.85,0,0,0-21.51-9V63.77A5.77,5.77,0,0,0,175.14,58H139.3a5.77,5.77,0,0,0-5.73,5.81V74.91a89,89,0,0,0-21.51,9l-7.78-7.88a5.7,5.7,0,0,0-8.11,0L70.83,101.69a5.86,5.86,0,0,0,0,8.2l7.8,7.89a91.44,91.44,0,0,0-8.92,21.77H58.65a5.77,5.77,0,0,0-5.73,5.8l0,36.27a5.81,5.81,0,0,0,1.68,4.1,5.67,5.67,0,0,0,4.05,1.7H69.7a91.44,91.44,0,0,0,8.92,21.77l-7.84,7.93a5.86,5.86,0,0,0,0,8.21L96.11,251a5.69,5.69,0,0,0,4,1.7h0a5.69,5.69,0,0,0,4-1.7l7.84-7.94a89.44,89.44,0,0,0,21.51,9Zm-19.26-32.47a5.7,5.7,0,0,0-7.17.77l-7,7.07L82.94,221.23l7-7.06a5.85,5.85,0,0,0,.76-7.25A79.71,79.71,0,0,1,79.82,180.4a5.76,5.76,0,0,0-5.61-4.58H64.37V151.15h9.83a5.76,5.76,0,0,0,5.61-4.58,79.71,79.71,0,0,1,10.85-26.52,5.85,5.85,0,0,0-.76-7.25l-6.93-7,17.24-17.43,6.92,7a5.7,5.7,0,0,0,7.17.77,77.86,77.86,0,0,1,26.2-11A5.77,5.77,0,0,0,145,79.47v-9.9h24.38v9.9a5.77,5.77,0,0,0,4.52,5.67,77.86,77.86,0,0,1,26.2,11,5.68,5.68,0,0,0,7.16-.77l6.93-7,17.24,17.43-6.93,7a5.85,5.85,0,0,0-.76,7.25,79.94,79.94,0,0,1,10.86,26.52,5.74,5.74,0,0,0,5.6,4.58h9.85v24.67h-9.85a5.74,5.74,0,0,0-5.6,4.58,79.94,79.94,0,0,1-10.86,26.52,5.85,5.85,0,0,0,.76,7.25l7,7.05-17.23,17.45-7-7.06a5.7,5.7,0,0,0-7.17-.77,77.86,77.86,0,0,1-26.2,11,5.79,5.79,0,0,0-4.52,5.67v10H145v-10a5.79,5.79,0,0,0-4.52-5.67A77.86,77.86,0,0,1,114.31,230.84Z"/><path d="M204.58,163.54c0-26.43-21.25-47.93-47.36-47.93s-47.36,21.5-47.36,47.93,21.25,47.93,47.36,47.93S204.58,190,204.58,163.54Zm-83.25,0c0-20,16.1-36.33,35.89-36.33s35.9,16.3,35.9,36.33-16.11,36.33-35.9,36.33S121.33,183.57,121.33,163.54Z"/><path d="M210,37a5.76,5.76,0,0,0,4.06-1.7,5.86,5.86,0,0,0,0-8.21,5.69,5.69,0,0,0-8.11,0,5.86,5.86,0,0,0,0,8.21A5.73,5.73,0,0,0,210,37Z"/><text class="cls-3" transform="translate(341.19 201.65)">PT. INTERINDO <tspan class="cls-4" x="732.97" y="0">T</tspan><tspan class="cls-5" x="776.47" y="0">O</tspan><tspan class="cls-6" x="813.44" y="0">OLING</tspan></text><path d="M101,299a5.76,5.76,0,0,0,4.06-1.7,5.86,5.86,0,0,0,0-8.21,5.69,5.69,0,0,0-8.11,0,5.86,5.86,0,0,0,0,8.21A5.73,5.73,0,0,0,101,299Z"/></svg>