<?xml version="1.0" encoding="UTF-8"?>
<svg width="19px" height="19px" viewBox="0 0 19 19" version="1.1" xmlns="http://www.w3.org/2000/svg" xmlns:xlink="http://www.w3.org/1999/xlink">
    <!-- Generator: Sketch 60.1 (88133) - https://sketch.com -->
    <title>Shape</title>
    <desc>Created with Sketch.</desc>
    <g id="Page-1" stroke="none" stroke-width="1" fill="none" fill-rule="evenodd">
        <g id="Desktop-HD-Copy-2" transform="translate(-313.000000, -3307.000000)" fill="#FFFFFF" fill-rule="nonzero">
            <g id="Footer-Copyright" transform="translate(0.000000, 3277.000000)">
                <g id="Group-4" transform="translate(305.000000, 22.000000)">
                    <g id="Group-20">
                        <g id="Youtube-Copy-2">
                            <g id="instagram-(1)" transform="translate(8.761905, 8.761905)">
                                <path d="M13.1033218,0 C15.5410019,0 17.5238095,1.98280758 17.5238095,4.42048777 L17.5238095,13.1033218 C17.5238095,15.5410019 15.5410019,17.5238095 13.1033218,17.5238095 L4.42048777,17.5238095 C1.98280758,17.5238095 0,15.5410019 0,13.1033218 L0,4.42048777 C0,1.98280758 1.98280758,0 4.42048777,0 L13.1033218,0 Z M13.1033218,1.90689963 L4.42048777,1.90689963 C3.03459268,1.90689963 1.90689963,3.03459268 1.90689963,4.42048777 L1.90689963,13.1033218 C1.90689963,14.4892168 3.03459268,15.6169099 4.42048777,15.6169099 L13.1033218,15.6169099 C14.4892168,15.6169099 15.6169099,14.4892168 15.6169099,13.1033218 L15.6169099,4.42048777 C15.6169099,3.03459268 14.4892168,1.90689963 13.1033218,1.90689963 Z M13.4201799,3.04609389 C14.0090416,3.04609389 14.4880667,3.52511904 14.4880667,4.11398068 C14.4880667,4.70284233 14.0090416,5.18186748 13.4201799,5.18186748 C12.8313183,5.18186748 12.3522931,4.70284233 12.3522931,4.11398068 C12.3522931,3.52511904 12.8313183,3.04609389 13.4201799,3.04609389 Z M8.76161723,4.24854477 C11.2504778,4.24854477 13.2752648,6.27333174 13.2752648,8.76161723 C13.2752648,11.2504778 11.2504778,13.2752648 8.76161723,13.2752648 C6.27333174,13.2752648 4.24854477,11.2504778 4.24854477,8.76161723 C4.24854477,6.27333174 6.27333174,4.24854477 8.76161723,4.24854477 Z M8.76161723,6.15601946 C7.32511685,6.15601946 6.1554444,7.32511685 6.1554444,8.76161723 C6.1554444,10.1986927 7.32511685,11.3683651 8.76161723,11.3683651 C10.1986927,11.3683651 11.3677901,10.1986927 11.3677901,8.76161723 C11.3677901,7.32511685 10.1986927,6.15601946 8.76161723,6.15601946 Z" id="Shape"></path>
                            </g>
                        </g>
                    </g>
                </g>
            </g>
        </g>
    </g>
</svg>