<?xml version="1.0" encoding="UTF-8"?>
<svg width="17px" height="15px" viewBox="0 0 17 15" version="1.1" xmlns="http://www.w3.org/2000/svg" xmlns:xlink="http://www.w3.org/1999/xlink">
    <!-- Generator: Sketch 60.1 (88133) - https://sketch.com -->
    <title>Fill 1</title>
    <desc>Created with Sketch.</desc>
    <g id="Page-1" stroke="none" stroke-width="1" fill="none" fill-rule="evenodd">
        <g id="Desktop-HD-Copy-2" transform="translate(-401.000000, -3309.000000)" fill="#FFFFFF">
            <g id="Footer-Copyright" transform="translate(0.000000, 3277.000000)">
                <g id="Group-4" transform="translate(305.000000, 22.000000)">
                    <g id="Group-20">
                        <g id="Twitter-Copy" transform="translate(86.000000, 0.000000)">
                            <path d="M26.3015859,10.8212695 C25.8136371,11.1380888 24.693314,11.5984699 24.1408029,11.5984699 L24.1408029,11.5994156 C23.5099214,10.9313524 22.6217239,10.5142857 21.6366829,10.5142857 C19.7235129,10.5142857 18.1721528,12.0868446 18.1721528,14.0254007 C18.1721528,14.2947444 18.2029411,14.5574681 18.259853,14.8094104 L18.2592932,14.8094104 C15.6641143,14.7403721 12.8258007,13.4218362 11.1171401,11.1651367 C10.0666039,13.0083633 10.9757002,15.0583263 12.1678628,15.8052634 C11.7597771,15.8364725 11.0085411,15.7575987 10.6549415,15.4078679 C10.6312438,16.6312635 11.2115577,18.2522437 13.3275577,18.8402982 C12.9200318,19.0625446 12.1986512,18.9988025 11.8849831,18.951516 C11.9950748,19.9842525 13.4217888,21.3343758 14.9819189,21.3343758 C14.4258625,21.9863617 12.3337468,23.1689017 9.9859944,22.7926906 C11.5804582,23.77606 13.438769,24.3455782 15.4056787,24.3455782 C20.9951655,24.3455782 25.335951,19.7536837 25.1023327,14.0889537 C25.1013997,14.0827119 25.1013997,14.0764701 25.1008399,14.0696608 C25.1013997,14.0550966 25.1023327,14.0405324 25.1023327,14.0254007 C25.1023327,14.0078101 25.1008399,13.9911653 25.1002801,13.9741422 C25.6091277,13.6213851 26.2918829,12.9973928 26.7796452,12.1761214 C26.4967655,12.3340582 25.6481263,12.6503101 24.8584515,12.7288057 C25.3652466,12.4515178 26.1161094,11.5434285 26.3015859,10.8212695" id="Fill-1"></path>
                        </g>
                    </g>
                </g>
            </g>
        </g>
    </g>
</svg>