<?xml version="1.0" encoding="UTF-8"?>
<svg width="19px" height="15px" viewBox="0 0 19 15" version="1.1" xmlns="http://www.w3.org/2000/svg" xmlns:xlink="http://www.w3.org/1999/xlink">
    <!-- Generator: Sketch 60.1 (88133) - https://sketch.com -->
    <title>Combined Shape</title>
    <desc>Created with Sketch.</desc>
    <g id="Page-1" stroke="none" stroke-width="1" fill="none" fill-rule="evenodd">
        <g id="Desktop-HD-Copy-2" transform="translate(-443.000000, -3309.000000)" fill="#FFFFFF">
            <g id="Footer-Copyright" transform="translate(0.000000, 3277.000000)">
                <g id="Group-4" transform="translate(305.000000, 22.000000)">
                    <g id="Group-20">
                        <g id="Facebook-Copy-2" transform="translate(130.000000, 0.000000)">
                            <path d="M18.1448521,10.9533553 C19.1028103,10.9580646 22.077116,10.9855357 24.1801604,11.1457836 C24.5344141,11.1899559 25.3075375,11.1935374 25.9973403,11.9546128 C26.5409072,12.5342239 26.7183175,13.8504367 26.7183175,13.8504367 C26.7183175,13.8504367 26.8996954,15.3964643 26.8996954,16.941895 L26.8996954,16.941895 L26.8996954,18.3912214 C26.8996954,19.937249 26.7183175,21.4826797 26.7183175,21.4826797 C26.7183175,21.4826797 26.5409072,22.7988925 25.9973403,23.3785036 C25.3075375,24.139579 24.5344141,24.1431605 24.1801604,24.1879297 C22.0045972,24.3537034 18.8937348,24.3817709 18.0493162,24.3864071 L17.7834713,24.3868192 C17.287294,24.3816133 13.0296202,24.3332977 11.6639513,24.1950927 C11.2603854,24.1157021 10.3540627,24.139579 9.66369304,23.3785036 C9.12012613,22.7988925 8.94328267,21.4826797 8.94328267,21.4826797 C8.94328267,21.4826797 8.76190476,19.937249 8.76190476,18.3912214 L8.76290356,16.7404409 C8.77733388,15.2649497 8.94328267,13.8504367 8.94328267,13.8504367 C8.94328267,13.8504367 9.12012613,12.5342239 9.66369304,11.9546128 C10.3540627,11.1935374 11.1266192,11.1899559 11.4814397,11.1457836 C13.5844842,10.9855357 16.5587899,10.9580646 17.5167481,10.9533553 Z M15.9575064,14.7804409 L15.9580732,20.1473655 L20.8581107,17.4731555 L15.9575064,14.7804409 Z" id="Combined-Shape"></path>
                        </g>
                    </g>
                </g>
            </g>
        </g>
    </g>
</svg>